<svg xmlns:xlink="http://www.w3.org/1999/xlink" width="102" xmlns="http://www.w3.org/2000/svg" height="102" id="screenshot-92af0adf-54ad-8062-8002-6f900e107bcc" viewBox="-1 -1 102 102" style="-webkit-print-color-adjust: exact;" fill="none" version="1.1"><g id="shape-92af0adf-54ad-8062-8002-6f900e107bcc" rx="0" ry="0"><g id="shape-92af0adf-54ad-8062-8002-6f8d302e7f09"><g class="fills" id="fills-92af0adf-54ad-8062-8002-6f8d302e7f09"><rect rx="22" ry="22" x="0" y="0" transform="matrix(1.000000, 0.000000, 0.000000, 1.000000, 0.000000, 0.000000)" width="100" height="100" style="fill: rgb(171, 246, 143); fill-opacity: 1;"/></g><g id="strokes-92af0adf-54ad-8062-8002-6f8d302e7f09" class="strokes"><g class="stroke-shape"><rect rx="22" ry="22" x="0" y="0" transform="matrix(1.000000, 0.000000, 0.000000, 1.000000, 0.000000, 0.000000)" width="100" height="100" style="fill: none; stroke-width: 2; stroke: rgb(63, 105, 49); stroke-opacity: 1;"/></g></g></g><g id="shape-92af0adf-54ad-8062-8002-6f8d54613a95" rx="0" ry="0"><g id="shape-92af0adf-54ad-8062-8002-6f8a49a1b3af"><g class="fills" id="fills-92af0adf-54ad-8062-8002-6f8a49a1b3af"><path rx="0" ry="0" d="M79.980,89.982L40.018,50.018C39.018,50.018,80.982,50.018,79.982,50.018C79.982,50.018,79.982,50.018,79.982,50.018C79.982,49.018,79.982,90.982,79.980,89.982Z" style="fill: rgb(119, 195, 91); fill-opacity: 1;"/></g><g id="strokes-92af0adf-54ad-8062-8002-6f8a49a1b3af" class="strokes"><g class="stroke-shape"><path rx="0" ry="0" d="M79.980,89.982L40.018,50.018C39.018,50.018,80.982,50.018,79.982,50.018C79.982,50.018,79.982,50.018,79.982,50.018C79.982,49.018,79.982,90.982,79.980,89.982Z" style="fill: none; stroke-width: 2; stroke: rgb(63, 105, 49); stroke-opacity: 1; stroke-linecap: round;"/></g></g></g><g id="shape-92af0adf-54ad-8062-8002-6f8fc65e1857"><g class="fills" id="fills-92af0adf-54ad-8062-8002-6f8fc65e1857"><path rx="0" ry="0" d="M20.003,50.000L60.000,10.000C61.000,10.000,19.000,10.000,20.000,10.000C20.000,10.000,20.000,10.000,20.000,10.000C20.000,9.000,20.000,51.000,20.003,50.000Z" style="fill: rgb(119, 195, 91); fill-opacity: 1;"/></g><g id="strokes-92af0adf-54ad-8062-8002-6f8fc65e1857" class="strokes"><g class="stroke-shape"><path rx="0" ry="0" d="M20.003,50.000L60.000,10.000C61.000,10.000,19.000,10.000,20.000,10.000C20.000,10.000,20.000,10.000,20.000,10.000C20.000,9.000,20.000,51.000,20.003,50.000Z" style="fill: none; stroke-width: 2; stroke: rgb(63, 105, 49); stroke-opacity: 1; stroke-linecap: round;"/></g></g></g></g></g></svg>